<svg width="185" height="47" viewBox="0 0 185 47" fill="none" xmlns="http://www.w3.org/2000/svg">
<path d="M46.9 36H43L52.66 14.64H55.81L65.47 36H61.63L53.77 17.64H54.82L46.9 36ZM47.26 30.99L48.73 27.99H59.62L61.03 30.99H47.26ZM67.7807 36V14.64H76.9307C79.3507 14.64 81.1907 15.17 82.4507 16.23C83.7107 17.29 84.3407 18.81 84.3407 20.79C84.3407 22.67 83.6907 24.17 82.3907 25.29C81.0907 26.39 79.2807 26.94 76.9607 26.94L79.3607 26.46C80.1007 26.46 80.7607 26.68 81.3407 27.12C81.9207 27.56 82.3807 28.24 82.7207 29.16L85.3607 36H81.2807L78.5807 28.89C78.3007 28.19 77.9007 27.72 77.3807 27.48C76.8807 27.24 76.2507 27.12 75.4907 27.12H71.5907V36H67.7807ZM71.5607 24.12H76.3907C77.8707 24.12 78.9507 23.85 79.6307 23.31C80.3107 22.77 80.6507 21.96 80.6507 20.88C80.6507 19.78 80.3107 18.97 79.6307 18.45C78.9507 17.93 77.8707 17.67 76.3907 17.67H71.5607V24.12ZM102.645 36L91.8152 25.11L102.255 14.64H106.935L95.3552 26.1L95.6252 23.97L107.385 36H102.645ZM88.8452 36V14.64H92.7152V36H88.8452ZM108.826 36V14.64H112.696V36H108.826ZM117.411 36V14.64H120.501L128.571 33.03H127.101L135.111 14.64H138.201V36H134.751L134.721 20.19L135.741 20.43L129.081 36H126.531L119.721 20.43L120.801 20.19L120.831 36H117.411ZM152.319 36.24C150.239 36.24 148.439 35.8 146.919 34.92C145.399 34.04 144.229 32.78 143.409 31.14C142.589 29.5 142.179 27.56 142.179 25.32C142.179 23.06 142.589 21.12 143.409 19.5C144.229 17.86 145.399 16.6 146.919 15.72C148.439 14.84 150.239 14.4 152.319 14.4C154.419 14.4 156.229 14.84 157.749 15.72C159.269 16.6 160.439 17.86 161.259 19.5C162.079 21.12 162.489 23.05 162.489 25.29C162.489 27.55 162.069 29.5 161.229 31.14C160.409 32.78 159.239 34.04 157.719 34.92C156.219 35.8 154.419 36.24 152.319 36.24ZM152.319 33.18C154.279 33.18 155.819 32.51 156.939 31.17C158.059 29.81 158.619 27.85 158.619 25.29C158.619 22.73 158.059 20.79 156.939 19.47C155.819 18.13 154.279 17.46 152.319 17.46C150.379 17.46 148.849 18.13 147.729 19.47C146.609 20.79 146.049 22.73 146.049 25.29C146.049 27.85 146.609 29.81 147.729 31.17C148.849 32.51 150.379 33.18 152.319 33.18ZM166.453 36V14.64H169.333L181.633 30.63L180.823 31.05V14.64H184.453V36H181.543L169.303 20.07L170.083 19.59V36H166.453Z" fill="black"/>
<g clip-path="url(#clip0_0_1)">
<path d="M3.65621 0H23.7731V16.3009H31.0078V47H0V23.5347V16.3009V0H3.65621ZM23.6954 23.5347H7.30464V39.7663H23.6954V23.5347ZM16.4607 7.23373H7.30464V16.3009H16.4607V7.23373Z" fill="#FDAE54"/>
</g>
<defs>
<clipPath id="clip0_0_1">
<rect width="31" height="47" fill="white"/>
</clipPath>
</defs>
</svg>
