<svg width="185" height="48" viewBox="0 0 185 48" fill="none" xmlns="http://www.w3.org/2000/svg">
<path d="M46.9 36.7982H43L52.66 15.4382H55.81L65.47 36.7982H61.63L53.77 18.4382H54.82L46.9 36.7982ZM47.26 31.7882L48.73 28.7882H59.62L61.03 31.7882H47.26Z" fill="black"/>
<path d="M67.7807 36.7982V15.4382H76.9307C79.3507 15.4382 81.1907 15.9682 82.4507 17.0282C83.7107 18.0882 84.3407 19.6082 84.3407 21.5882C84.3407 23.4682 83.6907 24.9682 82.3907 26.0882C81.0907 27.1882 79.2807 27.7382 76.9607 27.7382L79.3607 27.2582C80.1007 27.2582 80.7607 27.4782 81.3407 27.9182C81.9207 28.3582 82.3807 29.0382 82.7207 29.9582L85.3607 36.7982H81.2807L78.5807 29.6882C78.3007 28.9882 77.9007 28.5182 77.3807 28.2782C76.8807 28.0382 76.2507 27.9182 75.4907 27.9182H71.5907V36.7982H67.7807ZM71.5607 24.9182H76.3907C77.8707 24.9182 78.9507 24.6482 79.6307 24.1082C80.3107 23.5682 80.6507 22.7582 80.6507 21.6782C80.6507 20.5782 80.3107 19.7682 79.6307 19.2482C78.9507 18.7282 77.8707 18.4682 76.3907 18.4682H71.5607V24.9182Z" fill="black"/>
<path d="M102.645 36.7982L91.8152 25.9082L102.255 15.4382H106.935L95.3552 26.8982L95.6252 24.7682L107.385 36.7982H102.645ZM88.8452 36.7982V15.4382H92.7152V36.7982H88.8452Z" fill="black"/>
<path d="M108.826 36.7982V15.4382H112.696V36.7982H108.826Z" fill="black"/>
<path d="M117.411 36.7982V15.4382H120.501L128.571 33.8282H127.101L135.111 15.4382H138.201V36.7982H134.751L134.721 20.9882L135.741 21.2282L129.081 36.7982H126.531L119.721 21.2282L120.801 20.9882L120.831 36.7982H117.411Z" fill="black"/>
<path d="M152.319 37.0382C150.239 37.0382 148.439 36.5982 146.919 35.7182C145.399 34.8382 144.229 33.5782 143.409 31.9382C142.589 30.2982 142.179 28.3582 142.179 26.1182C142.179 23.8582 142.589 21.9182 143.409 20.2982C144.229 18.6582 145.399 17.3982 146.919 16.5182C148.439 15.6382 150.239 15.1982 152.319 15.1982C154.419 15.1982 156.229 15.6382 157.749 16.5182C159.269 17.3982 160.439 18.6582 161.259 20.2982C162.079 21.9182 162.489 23.8482 162.489 26.0882C162.489 28.3482 162.069 30.2982 161.229 31.9382C160.409 33.5782 159.239 34.8382 157.719 35.7182C156.219 36.5982 154.419 37.0382 152.319 37.0382ZM152.319 33.9782C154.279 33.9782 155.819 33.3082 156.939 31.9682C158.059 30.6082 158.619 28.6482 158.619 26.0882C158.619 23.5282 158.059 21.5882 156.939 20.2682C155.819 18.9282 154.279 18.2582 152.319 18.2582C150.379 18.2582 148.849 18.9282 147.729 20.2682C146.609 21.5882 146.049 23.5282 146.049 26.0882C146.049 28.6482 146.609 30.6082 147.729 31.9682C148.849 33.3082 150.379 33.9782 152.319 33.9782Z" fill="black"/>
<path d="M166.453 36.7982V15.4382H169.333L181.633 31.4282L180.823 31.8482V15.4382H184.453V36.7982H181.543L169.303 20.8682L170.083 20.3882V36.7982H166.453Z" fill="black"/>
<g clip-path="url(#clip0_203_163)">
<path d="M3.65621 0.79834H23.7731V17.0993H31.0078V47.7983H0V24.333V17.0993V0.79834H3.65621ZM23.6954 24.333H7.30464V40.5646H23.6954V24.333ZM16.4607 8.03207H7.30464V17.0993H16.4607V8.03207Z" fill="black"/>
</g>
<defs>
<clipPath id="clip0_203_163">
<rect width="31" height="47" fill="white" transform="translate(0 0.79834)"/>
</clipPath>
</defs>
</svg>
